ISO-10303-21;
HEADER;
/* Generated by software containing ST-Developer
 * from STEP Tools, Inc. (www.steptools.com) 
 */

FILE_DESCRIPTION(
/* description */ (''),
/* implementation_level */ '2;1');

FILE_NAME(
/* name */ '',
/* time_stamp */ '2026-09-20T07:34:40+08:00',
/* author */ (''),
/* organization */ (''),
/* preprocessor_version */ 'ST-DEVELOPER v20.2',
/* originating_system */ 'Autodesk Translation Framework v15.15.0.0',
/* authorisation */ '');

FILE_SCHEMA (('AUTOMOTIVE_DESIGN { 1 0 10303 214 3 1 1 }'));
ENDSEC;

DATA;
#10=MECHANICAL_DESIGN_GEOMETRIC_PRESENTATION_REPRESENTATION('',(#13),#1150);
#11=SHAPE_REPRESENTATION_RELATIONSHIP('SRR','None',#1157,#12);
#12=ADVANCED_BREP_SHAPE_REPRESENTATION('',(#14),#1149);
#13=STYLED_ITEM('',(#1167),#14);
#14=MANIFOLD_SOLID_BREP('\X2\5B9E4F53\X0\1',#564);
#15=FACE_BOUND('',#105,.T.);
#16=FACE_BOUND('',#113,.T.);
#17=FACE_BOUND('',#116,.T.);
#18=B_SPLINE_CURVE_WITH_KNOTS('',3,(#960,#961,#962,#963,#964,#965,#966,
#967,#968,#969),.UNSPECIFIED.,.F.,.F.,(4,2,2,2,4),(-0.00118158860430709,
0.,0.239864040516021,0.442606335657638,0.669551575799165),.UNSPECIFIED.);
#19=B_SPLINE_CURVE_WITH_KNOTS('',3,(#970,#971,#972,#973,#974),
 .UNSPECIFIED.,.F.,.F.,(4,1,4),(-0.31514306206311,-0.271557010112454,7.37506997569432E-18),
 .UNSPECIFIED.);
#20=B_SPLINE_CURVE_WITH_KNOTS('',3,(#975,#976,#977,#978,#979,#980,#981,
#982,#983,#984,#985,#986,#987,#988,#989,#990,#991,#992,#993,#994,#995,#996,
#997,#998,#999,#1000,#1001,#1002,#1003,#1004,#1005,#1006,#1007,#1008,#1009,
#1010,#1011),.UNSPECIFIED.,.F.,.F.,(4,3,3,3,3,3,3,3,3,3,3,3,4),(-5.33781631701605E-17,
0.115374265078971,0.230748530157943,0.271522425772898,0.429016329060116,
0.46724331353375,0.543132025622968,0.650402700898903,0.698876859512247,
0.801525242420766,0.849900445120796,0.909303966115604,0.950449535393588),
 .UNSPECIFIED.);
#21=B_SPLINE_CURVE_WITH_KNOTS('',3,(#1056,#1057,#1058,#1059,#1060,#1061,
#1062,#1063,#1064,#1065),.UNSPECIFIED.,.F.,.F.,(4,2,2,2,4),(0.,0.127057254156564,
0.240564280394328,0.374854236863953,0.375515759383941),.UNSPECIFIED.);
#22=B_SPLINE_CURVE_WITH_KNOTS('',3,(#1066,#1067,#1068,#1069,#1070,#1071,
#1072,#1073,#1074,#1075,#1076,#1077,#1078,#1079,#1080,#1081,#1082,#1083,
#1084,#1085,#1086,#1087,#1088,#1089,#1090,#1091,#1092,#1093,#1094,#1095,
#1096,#1097,#1098,#1099,#1100,#1101,#1102,#1103,#1104,#1105),
 .UNSPECIFIED.,.F.,.F.,(4,3,3,3,3,3,3,3,3,3,3,3,3,4),(-4.73782287531759,
-4.69821173053914,-4.62403005011932,-4.51653492451847,-4.48624675527761,
-4.46637337021409,-4.35916371272333,-4.25461656428122,-4.194705300823,-4.09708039170155,
-4.01812192446793,-3.94243553698926,-3.8649044381956,-3.78737333940194),
 .UNSPECIFIED.);
#23=B_SPLINE_CURVE_WITH_KNOTS('',3,(#1106,#1107,#1108,#1109),
 .UNSPECIFIED.,.F.,.F.,(4,4),(3.78737333940194,4.10251825730502),
 .UNSPECIFIED.);
#24=B_SPLINE_SURFACE_WITH_KNOTS('',3,3,((#928,#929,#930,#931,#932,#933),
(#934,#935,#936,#937,#938,#939),(#940,#941,#942,#943,#944,#945),(#946,#947,
#948,#949,#950,#951),(#952,#953,#954,#955,#956,#957)),.UNSPECIFIED.,.F.,
 .F.,.F.,(4,1,4),(4,1,1,4),(0.,0.571428571428571,1.),(-0.950449535393588,
-0.543114020224908,-0.271557010112454,7.37506997569432E-18),
 .UNSPECIFIED.);
#25=B_SPLINE_SURFACE_WITH_KNOTS('',3,3,((#1024,#1025,#1026,#1027,#1028,
#1029),(#1030,#1031,#1032,#1033,#1034,#1035),(#1036,#1037,#1038,#1039,#1040,
#1041),(#1042,#1043,#1044,#1045,#1046,#1047),(#1048,#1049,#1050,#1051,#1052,
#1053)),.UNSPECIFIED.,.F.,.F.,.F.,(4,1,4),(4,1,1,4),(0.,0.571428571428571,
1.),(3.78737333940194,4.19470885479436,4.46626586505598,4.73782287531759),
 .UNSPECIFIED.);
#26=PLANE('',#603);
#27=PLANE('',#606);
#28=PLANE('',#607);
#29=PLANE('',#618);
#30=PLANE('',#619);
#31=PLANE('',#633);
#32=PLANE('',#641);
#33=PLANE('',#642);
#34=PLANE('',#643);
#35=PLANE('',#647);
#36=SPHERICAL_SURFACE('',#587,3.);
#37=SPHERICAL_SURFACE('',#592,3.);
#38=SPHERICAL_SURFACE('',#597,3.);
#39=SPHERICAL_SURFACE('',#599,3.);
#40=SPHERICAL_SURFACE('',#631,3.);
#41=SPHERICAL_SURFACE('',#638,3.);
#42=FACE_OUTER_BOUND('',#78,.T.);
#43=FACE_OUTER_BOUND('',#79,.T.);
#44=FACE_OUTER_BOUND('',#80,.T.);
#45=FACE_OUTER_BOUND('',#81,.T.);
#46=FACE_OUTER_BOUND('',#82,.T.);
#47=FACE_OUTER_BOUND('',#83,.T.);
#48=FACE_OUTER_BOUND('',#84,.T.);
#49=FACE_OUTER_BOUND('',#85,.T.);
#50=FACE_OUTER_BOUND('',#86,.T.);
#51=FACE_OUTER_BOUND('',#87,.T.);
#52=FACE_OUTER_BOUND('',#88,.T.);
#53=FACE_OUTER_BOUND('',#89,.T.);
#54=FACE_OUTER_BOUND('',#90,.T.);
#55=FACE_OUTER_BOUND('',#91,.T.);
#56=FACE_OUTER_BOUND('',#92,.T.);
#57=FACE_OUTER_BOUND('',#93,.T.);
#58=FACE_OUTER_BOUND('',#94,.T.);
#59=FACE_OUTER_BOUND('',#95,.T.);
#60=FACE_OUTER_BOUND('',#96,.T.);
#61=FACE_OUTER_BOUND('',#97,.T.);
#62=FACE_OUTER_BOUND('',#98,.T.);
#63=FACE_OUTER_BOUND('',#99,.T.);
#64=FACE_OUTER_BOUND('',#100,.T.);
#65=FACE_OUTER_BOUND('',#101,.T.);
#66=FACE_OUTER_BOUND('',#102,.T.);
#67=FACE_OUTER_BOUND('',#103,.T.);
#68=FACE_OUTER_BOUND('',#104,.T.);
#69=FACE_OUTER_BOUND('',#106,.T.);
#70=FACE_OUTER_BOUND('',#107,.T.);
#71=FACE_OUTER_BOUND('',#108,.T.);
#72=FACE_OUTER_BOUND('',#109,.T.);
#73=FACE_OUTER_BOUND('',#110,.T.);
#74=FACE_OUTER_BOUND('',#111,.T.);
#75=FACE_OUTER_BOUND('',#112,.T.);
#76=FACE_OUTER_BOUND('',#114,.T.);
#77=FACE_OUTER_BOUND('',#115,.T.);
#78=EDGE_LOOP('',(#352,#353,#354,#355));
#79=EDGE_LOOP('',(#356,#357,#358,#359));
#80=EDGE_LOOP('',(#360,#361,#362,#363));
#81=EDGE_LOOP('',(#364,#365,#366));
#82=EDGE_LOOP('',(#367,#368,#369,#370));
#83=EDGE_LOOP('',(#371,#372,#373));
#84=EDGE_LOOP('',(#374,#375,#376,#377));
#85=EDGE_LOOP('',(#378,#379,#380));
#86=EDGE_LOOP('',(#381,#382,#383));
#87=EDGE_LOOP('',(#384,#385,#386,#387));
#88=EDGE_LOOP('',(#388,#389,#390,#391));
#89=EDGE_LOOP('',(#392,#393,#394,#395));
#90=EDGE_LOOP('',(#396,#397,#398,#399,#400,#401));
#91=EDGE_LOOP('',(#402,#403,#404,#405));
#92=EDGE_LOOP('',(#406,#407,#408,#409));
#93=EDGE_LOOP('',(#410,#411,#412,#413,#414,#415));
#94=EDGE_LOOP('',(#416,#417,#418,#419));
#95=EDGE_LOOP('',(#420,#421,#422,#423));
#96=EDGE_LOOP('',(#424,#425,#426,#427));
#97=EDGE_LOOP('',(#428,#429,#430,#431,#432,#433));
#98=EDGE_LOOP('',(#434,#435,#436,#437,#438,#439));
#99=EDGE_LOOP('',(#440,#441,#442,#443));
#100=EDGE_LOOP('',(#444,#445,#446,#447,#448,#449));
#101=EDGE_LOOP('',(#450,#451,#452,#453));
#102=EDGE_LOOP('',(#454,#455,#456,#457));
#103=EDGE_LOOP('',(#458,#459,#460));
#104=EDGE_LOOP('',(#461,#462,#463,#464,#465,#466));
#105=EDGE_LOOP('',(#467));
#106=EDGE_LOOP('',(#468,#469,#470,#471));
#107=EDGE_LOOP('',(#472,#473,#474,#475));
#108=EDGE_LOOP('',(#476,#477,#478));
#109=EDGE_LOOP('',(#479,#480,#481,#482));
#110=EDGE_LOOP('',(#483,#484,#485,#486,#487,#488,#489,#490,#491,#492));
#111=EDGE_LOOP('',(#493,#494,#495,#496));
#112=EDGE_LOOP('',(#497,#498,#499,#500,#501,#502));
#113=EDGE_LOOP('',(#503));
#114=EDGE_LOOP('',(#504,#505,#506,#507));
#115=EDGE_LOOP('',(#508));
#116=EDGE_LOOP('',(#509));
#117=LINE('',#832,#154);
#118=LINE('',#839,#155);
#119=LINE('',#842,#156);
#120=LINE('',#847,#157);
#121=LINE('',#850,#158);
#122=LINE('',#857,#159);
#123=LINE('',#860,#160);
#124=LINE('',#867,#161);
#125=LINE('',#869,#162);
#126=LINE('',#876,#163);
#127=LINE('',#879,#164);
#128=LINE('',#882,#165);
#129=LINE('',#883,#166);
#130=LINE('',#886,#167);
#131=LINE('',#890,#168);
#132=LINE('',#892,#169);
#133=LINE('',#894,#170);
#134=LINE('',#895,#171);
#135=LINE('',#902,#172);
#136=LINE('',#905,#173);
#137=LINE('',#910,#174);
#138=LINE('',#914,#175);
#139=LINE('',#921,#176);
#140=LINE('',#924,#177);
#141=LINE('',#926,#178);
#142=LINE('',#927,#179);
#143=LINE('',#1013,#180);
#144=LINE('',#1015,#181);
#145=LINE('',#1016,#182);
#146=LINE('',#1021,#183);
#147=LINE('',#1116,#184);
#148=LINE('',#1120,#185);
#149=LINE('',#1125,#186);
#150=LINE('',#1126,#187);
#151=LINE('',#1134,#188);
#152=LINE('',#1137,#189);
#153=LINE('',#1144,#190);
#154=VECTOR('',#654,20.);
#155=VECTOR('',#661,10.);
#156=VECTOR('',#664,10.);
#157=VECTOR('',#669,10.);
#158=VECTOR('',#672,10.);
#159=VECTOR('',#681,10.);
#160=VECTOR('',#684,10.);
#161=VECTOR('',#693,10.);
#162=VECTOR('',#696,10.);
#163=VECTOR('',#707,10.);
#164=VECTOR('',#710,10.);
#165=VECTOR('',#713,10.);
#166=VECTOR('',#714,10.);
#167=VECTOR('',#717,10.);
#168=VECTOR('',#722,10.);
#169=VECTOR('',#723,10.);
#170=VECTOR('',#724,10.);
#171=VECTOR('',#725,10.);
#172=VECTOR('',#732,10.);
#173=VECTOR('',#735,10.);
#174=VECTOR('',#740,10.);
#175=VECTOR('',#743,10.);
#176=VECTOR('',#750,10.);
#177=VECTOR('',#753,10.);
#178=VECTOR('',#756,10.);
#179=VECTOR('',#757,10.);
#180=VECTOR('',#760,10.);
#181=VECTOR('',#761,10.);
#182=VECTOR('',#762,10.);
#183=VECTOR('',#767,10.);
#184=VECTOR('',#782,10.);
#185=VECTOR('',#787,10.);
#186=VECTOR('',#794,10.);
#187=VECTOR('',#795,10.);
#188=VECTOR('',#808,10.);
#189=VECTOR('',#813,10.);
#190=VECTOR('',#822,33.);
#191=CIRCLE('',#579,20.);
#192=CIRCLE('',#580,20.);
#193=CIRCLE('',#582,3.);
#194=CIRCLE('',#583,3.);
#195=CIRCLE('',#585,3.);
#196=CIRCLE('',#586,3.);
#197=CIRCLE('',#588,3.);
#198=CIRCLE('',#590,3.00000000000001);
#199=CIRCLE('',#591,3.);
#200=CIRCLE('',#593,3.);
#201=CIRCLE('',#595,3.);
#202=CIRCLE('',#596,3.);
#203=CIRCLE('',#598,3.);
#204=CIRCLE('',#600,3.);
#205=CIRCLE('',#602,3.00000000000001);
#206=CIRCLE('',#605,3.);
#207=CIRCLE('',#609,3.);
#208=CIRCLE('',#610,3.);
#209=CIRCLE('',#612,3.);
#210=CIRCLE('',#613,3.);
#211=CIRCLE('',#614,3.);
#212=CIRCLE('',#616,3.);
#213=CIRCLE('',#617,3.);
#214=CIRCLE('',#621,3.);
#215=CIRCLE('',#622,3.);
#216=CIRCLE('',#623,3.);
#217=CIRCLE('',#625,34.);
#218=CIRCLE('',#626,34.);
#219=CIRCLE('',#628,3.);
#220=CIRCLE('',#630,3.);
#221=CIRCLE('',#632,3.);
#222=CIRCLE('',#635,3.);
#223=CIRCLE('',#637,3.);
#224=CIRCLE('',#640,3.);
#225=CIRCLE('',#644,33.);
#226=CIRCLE('',#646,33.);
#227=VERTEX_POINT('',#829);
#228=VERTEX_POINT('',#831);
#229=VERTEX_POINT('',#835);
#230=VERTEX_POINT('',#836);
#231=VERTEX_POINT('',#838);
#232=VERTEX_POINT('',#840);
#233=VERTEX_POINT('',#844);
#234=VERTEX_POINT('',#846);
#235=VERTEX_POINT('',#848);
#236=VERTEX_POINT('',#854);
#237=VERTEX_POINT('',#856);
#238=VERTEX_POINT('',#858);
#239=VERTEX_POINT('',#864);
#240=VERTEX_POINT('',#866);
#241=VERTEX_POINT('',#875);
#242=VERTEX_POINT('',#877);
#243=VERTEX_POINT('',#881);
#244=VERTEX_POINT('',#885);
#245=VERTEX_POINT('',#889);
#246=VERTEX_POINT('',#891);
#247=VERTEX_POINT('',#893);
#248=VERTEX_POINT('',#898);
#249=VERTEX_POINT('',#899);
#250=VERTEX_POINT('',#901);
#251=VERTEX_POINT('',#903);
#252=VERTEX_POINT('',#907);
#253=VERTEX_POINT('',#909);
#254=VERTEX_POINT('',#911);
#255=VERTEX_POINT('',#913);
#256=VERTEX_POINT('',#917);
#257=VERTEX_POINT('',#918);
#258=VERTEX_POINT('',#920);
#259=VERTEX_POINT('',#922);
#260=VERTEX_POINT('',#958);
#261=VERTEX_POINT('',#959);
#262=VERTEX_POINT('',#1014);
#263=VERTEX_POINT('',#1018);
#264=VERTEX_POINT('',#1020);
#265=VERTEX_POINT('',#1054);
#266=VERTEX_POINT('',#1055);
#267=VERTEX_POINT('',#1114);
#268=VERTEX_POINT('',#1118);
#269=VERTEX_POINT('',#1124);
#270=VERTEX_POINT('',#1133);
#271=VERTEX_POINT('',#1140);
#272=VERTEX_POINT('',#1143);
#273=EDGE_CURVE('',#227,#227,#191,.T.);
#274=EDGE_CURVE('',#227,#228,#117,.T.);
#275=EDGE_CURVE('',#228,#228,#192,.T.);
#276=EDGE_CURVE('',#229,#230,#193,.T.);
#277=EDGE_CURVE('',#230,#231,#118,.T.);
#278=EDGE_CURVE('',#231,#232,#194,.T.);
#279=EDGE_CURVE('',#232,#229,#119,.T.);
#280=EDGE_CURVE('',#232,#233,#195,.T.);
#281=EDGE_CURVE('',#233,#234,#120,.T.);
#282=EDGE_CURVE('',#234,#235,#196,.T.);
#283=EDGE_CURVE('',#235,#232,#121,.T.);
#284=EDGE_CURVE('',#231,#233,#197,.T.);
#285=EDGE_CURVE('',#235,#236,#198,.T.);
#286=EDGE_CURVE('',#236,#237,#122,.T.);
#287=EDGE_CURVE('',#237,#238,#199,.T.);
#288=EDGE_CURVE('',#238,#235,#123,.T.);
#289=EDGE_CURVE('',#234,#236,#200,.T.);
#290=EDGE_CURVE('',#238,#239,#201,.T.);
#291=EDGE_CURVE('',#239,#240,#124,.T.);
#292=EDGE_CURVE('',#240,#229,#202,.T.);
#293=EDGE_CURVE('',#229,#238,#125,.T.);
#294=EDGE_CURVE('',#237,#239,#203,.T.);
#295=EDGE_CURVE('',#240,#230,#204,.T.);
#296=EDGE_CURVE('',#231,#241,#126,.T.);
#297=EDGE_CURVE('',#241,#242,#205,.T.);
#298=EDGE_CURVE('',#242,#233,#127,.T.);
#299=EDGE_CURVE('',#243,#230,#128,.T.);
#300=EDGE_CURVE('',#241,#243,#129,.T.);
#301=EDGE_CURVE('',#240,#244,#130,.T.);
#302=EDGE_CURVE('',#244,#243,#206,.T.);
#303=EDGE_CURVE('',#245,#239,#131,.T.);
#304=EDGE_CURVE('',#245,#246,#132,.T.);
#305=EDGE_CURVE('',#247,#246,#133,.T.);
#306=EDGE_CURVE('',#244,#247,#134,.T.);
#307=EDGE_CURVE('',#248,#249,#207,.T.);
#308=EDGE_CURVE('',#249,#250,#135,.T.);
#309=EDGE_CURVE('',#250,#251,#208,.F.);
#310=EDGE_CURVE('',#251,#248,#136,.T.);
#311=EDGE_CURVE('',#252,#251,#209,.T.);
#312=EDGE_CURVE('',#252,#253,#137,.T.);
#313=EDGE_CURVE('',#253,#254,#210,.T.);
#314=EDGE_CURVE('',#254,#255,#138,.T.);
#315=EDGE_CURVE('',#255,#248,#211,.T.);
#316=EDGE_CURVE('',#256,#257,#212,.T.);
#317=EDGE_CURVE('',#257,#258,#139,.T.);
#318=EDGE_CURVE('',#258,#259,#213,.F.);
#319=EDGE_CURVE('',#259,#256,#140,.T.);
#320=EDGE_CURVE('',#256,#249,#141,.F.);
#321=EDGE_CURVE('',#250,#259,#142,.T.);
#322=EDGE_CURVE('',#260,#261,#18,.T.);
#323=EDGE_CURVE('',#261,#254,#19,.T.);
#324=EDGE_CURVE('',#253,#260,#20,.T.);
#325=EDGE_CURVE('',#253,#242,#143,.T.);
#326=EDGE_CURVE('',#252,#262,#144,.T.);
#327=EDGE_CURVE('',#234,#262,#145,.T.);
#328=EDGE_CURVE('',#263,#257,#214,.F.);
#329=EDGE_CURVE('',#263,#264,#146,.T.);
#330=EDGE_CURVE('',#264,#247,#215,.T.);
#331=EDGE_CURVE('',#258,#246,#216,.F.);
#332=EDGE_CURVE('',#265,#266,#21,.T.);
#333=EDGE_CURVE('',#266,#247,#22,.T.);
#334=EDGE_CURVE('',#264,#265,#23,.T.);
#335=EDGE_CURVE('',#261,#265,#217,.T.);
#336=EDGE_CURVE('',#255,#263,#218,.T.);
#337=EDGE_CURVE('',#262,#267,#219,.F.);
#338=EDGE_CURVE('',#267,#236,#147,.T.);
#339=EDGE_CURVE('',#242,#268,#220,.T.);
#340=EDGE_CURVE('',#268,#260,#148,.T.);
#341=EDGE_CURVE('',#241,#268,#221,.T.);
#342=EDGE_CURVE('',#269,#268,#149,.T.);
#343=EDGE_CURVE('',#266,#269,#150,.T.);
#344=EDGE_CURVE('',#269,#243,#222,.T.);
#345=EDGE_CURVE('',#269,#244,#223,.T.);
#346=EDGE_CURVE('',#237,#270,#151,.T.);
#347=EDGE_CURVE('',#270,#245,#224,.F.);
#348=EDGE_CURVE('',#270,#267,#152,.T.);
#349=EDGE_CURVE('',#271,#271,#225,.T.);
#350=EDGE_CURVE('',#271,#272,#153,.T.);
#351=EDGE_CURVE('',#272,#272,#226,.T.);
#352=ORIENTED_EDGE('',*,*,#273,.F.);
#353=ORIENTED_EDGE('',*,*,#274,.T.);
#354=ORIENTED_EDGE('',*,*,#275,.F.);
#355=ORIENTED_EDGE('',*,*,#274,.F.);
#356=ORIENTED_EDGE('',*,*,#276,.T.);
#357=ORIENTED_EDGE('',*,*,#277,.T.);
#358=ORIENTED_EDGE('',*,*,#278,.T.);
#359=ORIENTED_EDGE('',*,*,#279,.T.);
#360=ORIENTED_EDGE('',*,*,#280,.T.);
#361=ORIENTED_EDGE('',*,*,#281,.T.);
#362=ORIENTED_EDGE('',*,*,#282,.T.);
#363=ORIENTED_EDGE('',*,*,#283,.T.);
#364=ORIENTED_EDGE('',*,*,#280,.F.);
#365=ORIENTED_EDGE('',*,*,#278,.F.);
#366=ORIENTED_EDGE('',*,*,#284,.T.);
#367=ORIENTED_EDGE('',*,*,#285,.T.);
#368=ORIENTED_EDGE('',*,*,#286,.T.);
#369=ORIENTED_EDGE('',*,*,#287,.T.);
#370=ORIENTED_EDGE('',*,*,#288,.T.);
#371=ORIENTED_EDGE('',*,*,#285,.F.);
#372=ORIENTED_EDGE('',*,*,#282,.F.);
#373=ORIENTED_EDGE('',*,*,#289,.T.);
#374=ORIENTED_EDGE('',*,*,#290,.T.);
#375=ORIENTED_EDGE('',*,*,#291,.T.);
#376=ORIENTED_EDGE('',*,*,#292,.T.);
#377=ORIENTED_EDGE('',*,*,#293,.T.);
#378=ORIENTED_EDGE('',*,*,#290,.F.);
#379=ORIENTED_EDGE('',*,*,#287,.F.);
#380=ORIENTED_EDGE('',*,*,#294,.T.);
#381=ORIENTED_EDGE('',*,*,#276,.F.);
#382=ORIENTED_EDGE('',*,*,#292,.F.);
#383=ORIENTED_EDGE('',*,*,#295,.T.);
#384=ORIENTED_EDGE('',*,*,#284,.F.);
#385=ORIENTED_EDGE('',*,*,#296,.T.);
#386=ORIENTED_EDGE('',*,*,#297,.T.);
#387=ORIENTED_EDGE('',*,*,#298,.T.);
#388=ORIENTED_EDGE('',*,*,#277,.F.);
#389=ORIENTED_EDGE('',*,*,#299,.F.);
#390=ORIENTED_EDGE('',*,*,#300,.F.);
#391=ORIENTED_EDGE('',*,*,#296,.F.);
#392=ORIENTED_EDGE('',*,*,#295,.F.);
#393=ORIENTED_EDGE('',*,*,#301,.T.);
#394=ORIENTED_EDGE('',*,*,#302,.T.);
#395=ORIENTED_EDGE('',*,*,#299,.T.);
#396=ORIENTED_EDGE('',*,*,#291,.F.);
#397=ORIENTED_EDGE('',*,*,#303,.F.);
#398=ORIENTED_EDGE('',*,*,#304,.T.);
#399=ORIENTED_EDGE('',*,*,#305,.F.);
#400=ORIENTED_EDGE('',*,*,#306,.F.);
#401=ORIENTED_EDGE('',*,*,#301,.F.);
#402=ORIENTED_EDGE('',*,*,#279,.F.);
#403=ORIENTED_EDGE('',*,*,#283,.F.);
#404=ORIENTED_EDGE('',*,*,#288,.F.);
#405=ORIENTED_EDGE('',*,*,#293,.F.);
#406=ORIENTED_EDGE('',*,*,#307,.T.);
#407=ORIENTED_EDGE('',*,*,#308,.T.);
#408=ORIENTED_EDGE('',*,*,#309,.T.);
#409=ORIENTED_EDGE('',*,*,#310,.T.);
#410=ORIENTED_EDGE('',*,*,#310,.F.);
#411=ORIENTED_EDGE('',*,*,#311,.F.);
#412=ORIENTED_EDGE('',*,*,#312,.T.);
#413=ORIENTED_EDGE('',*,*,#313,.T.);
#414=ORIENTED_EDGE('',*,*,#314,.T.);
#415=ORIENTED_EDGE('',*,*,#315,.T.);
#416=ORIENTED_EDGE('',*,*,#316,.T.);
#417=ORIENTED_EDGE('',*,*,#317,.T.);
#418=ORIENTED_EDGE('',*,*,#318,.T.);
#419=ORIENTED_EDGE('',*,*,#319,.T.);
#420=ORIENTED_EDGE('',*,*,#308,.F.);
#421=ORIENTED_EDGE('',*,*,#320,.F.);
#422=ORIENTED_EDGE('',*,*,#319,.F.);
#423=ORIENTED_EDGE('',*,*,#321,.F.);
#424=ORIENTED_EDGE('',*,*,#322,.T.);
#425=ORIENTED_EDGE('',*,*,#323,.T.);
#426=ORIENTED_EDGE('',*,*,#313,.F.);
#427=ORIENTED_EDGE('',*,*,#324,.T.);
#428=ORIENTED_EDGE('',*,*,#281,.F.);
#429=ORIENTED_EDGE('',*,*,#298,.F.);
#430=ORIENTED_EDGE('',*,*,#325,.F.);
#431=ORIENTED_EDGE('',*,*,#312,.F.);
#432=ORIENTED_EDGE('',*,*,#326,.T.);
#433=ORIENTED_EDGE('',*,*,#327,.F.);
#434=ORIENTED_EDGE('',*,*,#317,.F.);
#435=ORIENTED_EDGE('',*,*,#328,.F.);
#436=ORIENTED_EDGE('',*,*,#329,.T.);
#437=ORIENTED_EDGE('',*,*,#330,.T.);
#438=ORIENTED_EDGE('',*,*,#305,.T.);
#439=ORIENTED_EDGE('',*,*,#331,.F.);
#440=ORIENTED_EDGE('',*,*,#332,.T.);
#441=ORIENTED_EDGE('',*,*,#333,.T.);
#442=ORIENTED_EDGE('',*,*,#330,.F.);
#443=ORIENTED_EDGE('',*,*,#334,.T.);
#444=ORIENTED_EDGE('',*,*,#323,.F.);
#445=ORIENTED_EDGE('',*,*,#335,.T.);
#446=ORIENTED_EDGE('',*,*,#334,.F.);
#447=ORIENTED_EDGE('',*,*,#329,.F.);
#448=ORIENTED_EDGE('',*,*,#336,.F.);
#449=ORIENTED_EDGE('',*,*,#314,.F.);
#450=ORIENTED_EDGE('',*,*,#289,.F.);
#451=ORIENTED_EDGE('',*,*,#327,.T.);
#452=ORIENTED_EDGE('',*,*,#337,.T.);
#453=ORIENTED_EDGE('',*,*,#338,.T.);
#454=ORIENTED_EDGE('',*,*,#324,.F.);
#455=ORIENTED_EDGE('',*,*,#325,.T.);
#456=ORIENTED_EDGE('',*,*,#339,.T.);
#457=ORIENTED_EDGE('',*,*,#340,.T.);
#458=ORIENTED_EDGE('',*,*,#297,.F.);
#459=ORIENTED_EDGE('',*,*,#341,.T.);
#460=ORIENTED_EDGE('',*,*,#339,.F.);
#461=ORIENTED_EDGE('',*,*,#340,.F.);
#462=ORIENTED_EDGE('',*,*,#342,.F.);
#463=ORIENTED_EDGE('',*,*,#343,.F.);
#464=ORIENTED_EDGE('',*,*,#332,.F.);
#465=ORIENTED_EDGE('',*,*,#335,.F.);
#466=ORIENTED_EDGE('',*,*,#322,.F.);
#467=ORIENTED_EDGE('',*,*,#273,.T.);
#468=ORIENTED_EDGE('',*,*,#341,.F.);
#469=ORIENTED_EDGE('',*,*,#300,.T.);
#470=ORIENTED_EDGE('',*,*,#344,.F.);
#471=ORIENTED_EDGE('',*,*,#342,.T.);
#472=ORIENTED_EDGE('',*,*,#333,.F.);
#473=ORIENTED_EDGE('',*,*,#343,.T.);
#474=ORIENTED_EDGE('',*,*,#345,.T.);
#475=ORIENTED_EDGE('',*,*,#306,.T.);
#476=ORIENTED_EDGE('',*,*,#345,.F.);
#477=ORIENTED_EDGE('',*,*,#344,.T.);
#478=ORIENTED_EDGE('',*,*,#302,.F.);
#479=ORIENTED_EDGE('',*,*,#294,.F.);
#480=ORIENTED_EDGE('',*,*,#346,.T.);
#481=ORIENTED_EDGE('',*,*,#347,.T.);
#482=ORIENTED_EDGE('',*,*,#303,.T.);
#483=ORIENTED_EDGE('',*,*,#321,.T.);
#484=ORIENTED_EDGE('',*,*,#318,.F.);
#485=ORIENTED_EDGE('',*,*,#331,.T.);
#486=ORIENTED_EDGE('',*,*,#304,.F.);
#487=ORIENTED_EDGE('',*,*,#347,.F.);
#488=ORIENTED_EDGE('',*,*,#348,.T.);
#489=ORIENTED_EDGE('',*,*,#337,.F.);
#490=ORIENTED_EDGE('',*,*,#326,.F.);
#491=ORIENTED_EDGE('',*,*,#311,.T.);
#492=ORIENTED_EDGE('',*,*,#309,.F.);
#493=ORIENTED_EDGE('',*,*,#286,.F.);
#494=ORIENTED_EDGE('',*,*,#338,.F.);
#495=ORIENTED_EDGE('',*,*,#348,.F.);
#496=ORIENTED_EDGE('',*,*,#346,.F.);
#497=ORIENTED_EDGE('',*,*,#307,.F.);
#498=ORIENTED_EDGE('',*,*,#315,.F.);
#499=ORIENTED_EDGE('',*,*,#336,.T.);
#500=ORIENTED_EDGE('',*,*,#328,.T.);
#501=ORIENTED_EDGE('',*,*,#316,.F.);
#502=ORIENTED_EDGE('',*,*,#320,.T.);
#503=ORIENTED_EDGE('',*,*,#349,.T.);
#504=ORIENTED_EDGE('',*,*,#349,.F.);
#505=ORIENTED_EDGE('',*,*,#350,.T.);
#506=ORIENTED_EDGE('',*,*,#351,.T.);
#507=ORIENTED_EDGE('',*,*,#350,.F.);
#508=ORIENTED_EDGE('',*,*,#351,.F.);
#509=ORIENTED_EDGE('',*,*,#275,.T.);
#510=CYLINDRICAL_SURFACE('',#578,20.);
#511=CYLINDRICAL_SURFACE('',#581,3.);
#512=CYLINDRICAL_SURFACE('',#584,3.);
#513=CYLINDRICAL_SURFACE('',#589,3.);
#514=CYLINDRICAL_SURFACE('',#594,3.);
#515=CYLINDRICAL_SURFACE('',#601,3.);
#516=CYLINDRICAL_SURFACE('',#604,3.);
#517=CYLINDRICAL_SURFACE('',#608,3.);
#518=CYLINDRICAL_SURFACE('',#611,3.);
#519=CYLINDRICAL_SURFACE('',#615,3.);
#520=CYLINDRICAL_SURFACE('',#620,3.);
#521=CYLINDRICAL_SURFACE('',#624,34.);
#522=CYLINDRICAL_SURFACE('',#627,3.);
#523=CYLINDRICAL_SURFACE('',#629,3.);
#524=CYLINDRICAL_SURFACE('',#634,3.);
#525=CYLINDRICAL_SURFACE('',#636,3.);
#526=CYLINDRICAL_SURFACE('',#639,3.);
#527=CYLINDRICAL_SURFACE('',#645,33.);
#528=ADVANCED_FACE('',(#42),#510,.F.);
#529=ADVANCED_FACE('',(#43),#511,.T.);
#530=ADVANCED_FACE('',(#44),#512,.T.);
#531=ADVANCED_FACE('',(#45),#36,.T.);
#532=ADVANCED_FACE('',(#46),#513,.T.);
#533=ADVANCED_FACE('',(#47),#37,.T.);
#534=ADVANCED_FACE('',(#48),#514,.T.);
#535=ADVANCED_FACE('',(#49),#38,.T.);
#536=ADVANCED_FACE('',(#50),#39,.T.);
#537=ADVANCED_FACE('',(#51),#515,.T.);
#538=ADVANCED_FACE('',(#52),#26,.T.);
#539=ADVANCED_FACE('',(#53),#516,.T.);
#540=ADVANCED_FACE('',(#54),#27,.T.);
#541=ADVANCED_FACE('',(#55),#28,.T.);
#542=ADVANCED_FACE('',(#56),#517,.T.);
#543=ADVANCED_FACE('',(#57),#518,.F.);
#544=ADVANCED_FACE('',(#58),#519,.T.);
#545=ADVANCED_FACE('',(#59),#29,.F.);
#546=ADVANCED_FACE('',(#60),#24,.T.);
#547=ADVANCED_FACE('',(#61),#30,.T.);
#548=ADVANCED_FACE('',(#62),#520,.F.);
#549=ADVANCED_FACE('',(#63),#25,.T.);
#550=ADVANCED_FACE('',(#64),#521,.T.);
#551=ADVANCED_FACE('',(#65),#522,.T.);
#552=ADVANCED_FACE('',(#66),#523,.T.);
#553=ADVANCED_FACE('',(#67),#40,.T.);
#554=ADVANCED_FACE('',(#68,#15),#31,.F.);
#555=ADVANCED_FACE('',(#69),#524,.T.);
#556=ADVANCED_FACE('',(#70),#525,.T.);
#557=ADVANCED_FACE('',(#71),#41,.T.);
#558=ADVANCED_FACE('',(#72),#526,.T.);
#559=ADVANCED_FACE('',(#73),#32,.F.);
#560=ADVANCED_FACE('',(#74),#33,.F.);
#561=ADVANCED_FACE('',(#75,#16),#34,.T.);
#562=ADVANCED_FACE('',(#76),#527,.F.);
#563=ADVANCED_FACE('',(#77,#17),#35,.T.);
#564=CLOSED_SHELL('',(#528,#529,#530,#531,#532,#533,#534,#535,#536,#537,
#538,#539,#540,#541,#542,#543,#544,#545,#546,#547,#548,#549,#550,#551,#552,
#553,#554,#555,#556,#557,#558,#559,#560,#561,#562,#563));
#565=DERIVED_UNIT_ELEMENT(#567,1.);
#566=DERIVED_UNIT_ELEMENT(#1152,-3.);
#567=(
MASS_UNIT()
NAMED_UNIT(*)
SI_UNIT(.KILO.,.GRAM.)
);
#568=DERIVED_UNIT((#565,#566));
#569=MEASURE_REPRESENTATION_ITEM('density measure',
POSITIVE_RATIO_MEASURE(7850.),#568);
#570=PROPERTY_DEFINITION_REPRESENTATION(#575,#572);
#571=PROPERTY_DEFINITION_REPRESENTATION(#576,#573);
#572=REPRESENTATION('material name',(#574),#1149);
#573=REPRESENTATION('density',(#569),#1149);
#574=DESCRIPTIVE_REPRESENTATION_ITEM('\X2\94A2\X0\','\X2\94A2\X0\');
#575=PROPERTY_DEFINITION('material property','material name',#1159);
#576=PROPERTY_DEFINITION('material property','density of part',#1159);
#577=AXIS2_PLACEMENT_3D('',#827,#648,#649);
#578=AXIS2_PLACEMENT_3D('',#828,#650,#651);
#579=AXIS2_PLACEMENT_3D('',#830,#652,#653);
#580=AXIS2_PLACEMENT_3D('',#833,#655,#656);
#581=AXIS2_PLACEMENT_3D('',#834,#657,#658);
#582=AXIS2_PLACEMENT_3D('',#837,#659,#660);
#583=AXIS2_PLACEMENT_3D('',#841,#662,#663);
#584=AXIS2_PLACEMENT_3D('',#843,#665,#666);
#585=AXIS2_PLACEMENT_3D('',#845,#667,#668);
#586=AXIS2_PLACEMENT_3D('',#849,#670,#671);
#587=AXIS2_PLACEMENT_3D('',#851,#673,#674);
#588=AXIS2_PLACEMENT_3D('',#852,#675,#676);
#589=AXIS2_PLACEMENT_3D('',#853,#677,#678);
#590=AXIS2_PLACEMENT_3D('',#855,#679,#680);
#591=AXIS2_PLACEMENT_3D('',#859,#682,#683);
#592=AXIS2_PLACEMENT_3D('',#861,#685,#686);
#593=AXIS2_PLACEMENT_3D('',#862,#687,#688);
#594=AXIS2_PLACEMENT_3D('',#863,#689,#690);
#595=AXIS2_PLACEMENT_3D('',#865,#691,#692);
#596=AXIS2_PLACEMENT_3D('',#868,#694,#695);
#597=AXIS2_PLACEMENT_3D('',#870,#697,#698);
#598=AXIS2_PLACEMENT_3D('',#871,#699,#700);
#599=AXIS2_PLACEMENT_3D('',#872,#701,#702);
#600=AXIS2_PLACEMENT_3D('',#873,#703,#704);
#601=AXIS2_PLACEMENT_3D('',#874,#705,#706);
#602=AXIS2_PLACEMENT_3D('',#878,#708,#709);
#603=AXIS2_PLACEMENT_3D('',#880,#711,#712);
#604=AXIS2_PLACEMENT_3D('',#884,#715,#716);
#605=AXIS2_PLACEMENT_3D('',#887,#718,#719);
#606=AXIS2_PLACEMENT_3D('',#888,#720,#721);
#607=AXIS2_PLACEMENT_3D('',#896,#726,#727);
#608=AXIS2_PLACEMENT_3D('',#897,#728,#729);
#609=AXIS2_PLACEMENT_3D('',#900,#730,#731);
#610=AXIS2_PLACEMENT_3D('',#904,#733,#734);
#611=AXIS2_PLACEMENT_3D('',#906,#736,#737);
#612=AXIS2_PLACEMENT_3D('',#908,#738,#739);
#613=AXIS2_PLACEMENT_3D('',#912,#741,#742);
#614=AXIS2_PLACEMENT_3D('',#915,#744,#745);
#615=AXIS2_PLACEMENT_3D('',#916,#746,#747);
#616=AXIS2_PLACEMENT_3D('',#919,#748,#749);
#617=AXIS2_PLACEMENT_3D('',#923,#751,#752);
#618=AXIS2_PLACEMENT_3D('',#925,#754,#755);
#619=AXIS2_PLACEMENT_3D('',#1012,#758,#759);
#620=AXIS2_PLACEMENT_3D('',#1017,#763,#764);
#621=AXIS2_PLACEMENT_3D('',#1019,#765,#766);
#622=AXIS2_PLACEMENT_3D('',#1022,#768,#769);
#623=AXIS2_PLACEMENT_3D('',#1023,#770,#771);
#624=AXIS2_PLACEMENT_3D('',#1110,#772,#773);
#625=AXIS2_PLACEMENT_3D('',#1111,#774,#775);
#626=AXIS2_PLACEMENT_3D('',#1112,#776,#777);
#627=AXIS2_PLACEMENT_3D('',#1113,#778,#779);
#628=AXIS2_PLACEMENT_3D('',#1115,#780,#781);
#629=AXIS2_PLACEMENT_3D('',#1117,#783,#784);
#630=AXIS2_PLACEMENT_3D('',#1119,#785,#786);
#631=AXIS2_PLACEMENT_3D('',#1121,#788,#789);
#632=AXIS2_PLACEMENT_3D('',#1122,#790,#791);
#633=AXIS2_PLACEMENT_3D('',#1123,#792,#793);
#634=AXIS2_PLACEMENT_3D('',#1127,#796,#797);
#635=AXIS2_PLACEMENT_3D('',#1128,#798,#799);
#636=AXIS2_PLACEMENT_3D('',#1129,#800,#801);
#637=AXIS2_PLACEMENT_3D('',#1130,#802,#803);
#638=AXIS2_PLACEMENT_3D('',#1131,#804,#805);
#639=AXIS2_PLACEMENT_3D('',#1132,#806,#807);
#640=AXIS2_PLACEMENT_3D('',#1135,#809,#810);
#641=AXIS2_PLACEMENT_3D('',#1136,#811,#812);
#642=AXIS2_PLACEMENT_3D('',#1138,#814,#815);
#643=AXIS2_PLACEMENT_3D('',#1139,#816,#817);
#644=AXIS2_PLACEMENT_3D('',#1141,#818,#819);
#645=AXIS2_PLACEMENT_3D('',#1142,#820,#821);
#646=AXIS2_PLACEMENT_3D('',#1145,#823,#824);
#647=AXIS2_PLACEMENT_3D('',#1146,#825,#826);
#648=DIRECTION('axis',(0.,0.,1.));
#649=DIRECTION('refdir',(1.,0.,0.));
#650=DIRECTION('center_axis',(0.,0.,1.));
#651=DIRECTION('ref_axis',(1.,0.,0.));
#652=DIRECTION('center_axis',(0.,0.,1.));
#653=DIRECTION('ref_axis',(1.,0.,0.));
#654=DIRECTION('',(0.,0.,1.));
#655=DIRECTION('center_axis',(0.,0.,-1.));
#656=DIRECTION('ref_axis',(1.,0.,0.));
#657=DIRECTION('center_axis',(1.,0.,0.));
#658=DIRECTION('ref_axis',(0.,-0.707106781186548,0.707106781186548));
#659=DIRECTION('center_axis',(1.,0.,0.));
#660=DIRECTION('ref_axis',(0.,0.,1.));
#661=DIRECTION('',(1.,0.,0.));
#662=DIRECTION('center_axis',(-1.,0.,0.));
#663=DIRECTION('ref_axis',(0.,-1.,0.));
#664=DIRECTION('',(-1.,0.,0.));
#665=DIRECTION('center_axis',(0.,1.,0.));
#666=DIRECTION('ref_axis',(0.707106781186549,0.,0.707106781186546));
#667=DIRECTION('center_axis',(0.,1.,0.));
#668=DIRECTION('ref_axis',(0.,0.,1.));
#669=DIRECTION('',(0.,1.,0.));
#670=DIRECTION('center_axis',(0.,-1.,0.));
#671=DIRECTION('ref_axis',(1.,0.,0.));
#672=DIRECTION('',(0.,-1.,0.));
#673=DIRECTION('center_axis',(-0.816496580927727,-0.408248290463865,0.40824829046386));
#674=DIRECTION('ref_axis',(0.577350269189626,-0.577350269189628,0.577350269189623));
#675=DIRECTION('center_axis',(0.,0.,1.));
#676=DIRECTION('ref_axis',(0.707106781186546,-0.707106781186549,0.));
#677=DIRECTION('center_axis',(-1.,0.,0.));
#678=DIRECTION('ref_axis',(0.,0.707106781186545,0.70710678118655));
#679=DIRECTION('center_axis',(-1.,0.,0.));
#680=DIRECTION('ref_axis',(0.,0.,1.));
#681=DIRECTION('',(-1.,0.,0.));
#682=DIRECTION('center_axis',(1.,0.,0.));
#683=DIRECTION('ref_axis',(0.,1.,0.));
#684=DIRECTION('',(1.,0.,0.));
#685=DIRECTION('center_axis',(0.408248290463862,0.408248290463861,-0.816496580927727));
#686=DIRECTION('ref_axis',(0.577350269189627,0.577350269189628,0.577350269189623));
#687=DIRECTION('center_axis',(0.,0.,1.));
#688=DIRECTION('ref_axis',(0.707106781186549,0.707106781186546,0.));
#689=DIRECTION('center_axis',(0.,-1.,0.));
#690=DIRECTION('ref_axis',(-0.707106781186549,0.,0.707106781186546));
#691=DIRECTION('center_axis',(0.,-1.,0.));
#692=DIRECTION('ref_axis',(0.,0.,1.));
#693=DIRECTION('',(0.,-1.,0.));
#694=DIRECTION('center_axis',(0.,1.,0.));
#695=DIRECTION('ref_axis',(-1.,0.,0.));
#696=DIRECTION('',(0.,1.,0.));
#697=DIRECTION('center_axis',(-0.408248290463861,-0.816496580927726,0.408248290463864));
#698=DIRECTION('ref_axis',(-0.577350269189625,0.577350269189625,0.577350269189627));
#699=DIRECTION('center_axis',(0.,0.,1.));
#700=DIRECTION('ref_axis',(-0.707106781186549,0.707106781186546,0.));
#701=DIRECTION('center_axis',(-0.408248290463862,-0.408248290463861,-0.816496580927727));
#702=DIRECTION('ref_axis',(-0.577350269189626,-0.577350269189625,0.577350269189627));
#703=DIRECTION('center_axis',(0.,0.,1.));
#704=DIRECTION('ref_axis',(-0.707106781186549,-0.707106781186546,0.));
#705=DIRECTION('center_axis',(0.,0.,1.));
#706=DIRECTION('ref_axis',(0.707106781186547,-0.707106781186548,0.));
#707=DIRECTION('',(0.,0.,-1.));
#708=DIRECTION('center_axis',(0.,0.,1.));
#709=DIRECTION('ref_axis',(0.,-1.,0.));
#710=DIRECTION('',(0.,0.,1.));
#711=DIRECTION('center_axis',(0.,-1.,0.));
#712=DIRECTION('ref_axis',(1.,0.,0.));
#713=DIRECTION('',(0.,0.,1.));
#714=DIRECTION('',(-1.,0.,0.));
#715=DIRECTION('center_axis',(0.,0.,1.));
#716=DIRECTION('ref_axis',(-0.707106781186549,-0.707106781186546,0.));
#717=DIRECTION('',(0.,0.,-1.));
#718=DIRECTION('center_axis',(0.,0.,1.));
#719=DIRECTION('ref_axis',(-1.,0.,0.));
#720=DIRECTION('center_axis',(-1.,0.,0.));
#721=DIRECTION('ref_axis',(0.,-1.,0.));
#722=DIRECTION('',(0.,0.,1.));
#723=DIRECTION('',(0.,1.,0.));
#724=DIRECTION('',(0.,0.,1.));
#725=DIRECTION('',(0.,1.,0.));
#726=DIRECTION('center_axis',(0.,0.,1.));
#727=DIRECTION('ref_axis',(1.,0.,0.));
#728=DIRECTION('center_axis',(0.,0.,-1.));
#729=DIRECTION('ref_axis',(0.37034661201398,-0.928893635983026,0.));
#730=DIRECTION('center_axis',(0.,0.,-1.));
#731=DIRECTION('ref_axis',(0.37034661201398,-0.928893635983026,0.));
#732=DIRECTION('',(0.,0.,-1.));
#733=DIRECTION('center_axis',(0.,0.,-1.));
#734=DIRECTION('ref_axis',(0.37034661201398,-0.928893635983026,0.));
#735=DIRECTION('',(0.,0.,1.));
#736=DIRECTION('center_axis',(0.,0.,-1.));
#737=DIRECTION('ref_axis',(-0.796627725244495,0.604470236961078,0.));
#738=DIRECTION('center_axis',(0.,0.,-1.));
#739=DIRECTION('ref_axis',(-0.796627725244495,0.604470236961078,0.));
#740=DIRECTION('',(0.,0.,-1.));
#741=DIRECTION('center_axis',(0.,0.,-1.));
#742=DIRECTION('ref_axis',(-1.,0.,0.));
#743=DIRECTION('',(0.,0.,1.));
#744=DIRECTION('center_axis',(0.,0.,1.));
#745=DIRECTION('ref_axis',(-0.796627725244495,0.604470236961078,0.));
#746=DIRECTION('center_axis',(0.,0.,1.));
#747=DIRECTION('ref_axis',(-0.37034661201398,-0.928893635983026,0.));
#748=DIRECTION('center_axis',(0.,0.,-1.));
#749=DIRECTION('ref_axis',(-0.37034661201398,-0.928893635983026,0.));
#750=DIRECTION('',(0.,0.,-1.));
#751=DIRECTION('center_axis',(0.,0.,-1.));
#752=DIRECTION('ref_axis',(-0.37034661201398,-0.928893635983026,0.));
#753=DIRECTION('',(0.,0.,1.));
#754=DIRECTION('center_axis',(0.,1.,0.));
#755=DIRECTION('ref_axis',(0.,0.,1.));
#756=DIRECTION('',(-1.,0.,0.));
#757=DIRECTION('',(-1.,0.,0.));
#758=DIRECTION('center_axis',(1.,0.,0.));
#759=DIRECTION('ref_axis',(0.,1.,0.));
#760=DIRECTION('',(0.,-1.,0.));
#761=DIRECTION('',(0.,-1.,0.));
#762=DIRECTION('',(0.,0.,-1.));
#763=DIRECTION('center_axis',(0.,0.,1.));
#764=DIRECTION('ref_axis',(0.796627725244495,0.604470236961077,0.));
#765=DIRECTION('center_axis',(0.,0.,1.));
#766=DIRECTION('ref_axis',(0.796627725244495,0.604470236961077,0.));
#767=DIRECTION('',(0.,0.,-1.));
#768=DIRECTION('center_axis',(0.,0.,-1.));
#769=DIRECTION('ref_axis',(0.269231465256437,0.963075499696608,0.));
#770=DIRECTION('center_axis',(0.,0.,1.));
#771=DIRECTION('ref_axis',(0.796627725244495,0.604470236961077,0.));
#772=DIRECTION('center_axis',(0.,0.,1.));
#773=DIRECTION('ref_axis',(6.12323399573677E-17,1.,0.));
#774=DIRECTION('center_axis',(0.,0.,1.));
#775=DIRECTION('ref_axis',(1.,0.,0.));
#776=DIRECTION('center_axis',(0.,0.,1.));
#777=DIRECTION('ref_axis',(1.,0.,0.));
#778=DIRECTION('center_axis',(0.,0.,1.));
#779=DIRECTION('ref_axis',(0.707106781186549,0.707106781186546,0.));
#780=DIRECTION('center_axis',(0.,0.,-1.));
#781=DIRECTION('ref_axis',(0.707106781186549,0.707106781186546,0.));
#782=DIRECTION('',(0.,0.,1.));
#783=DIRECTION('center_axis',(0.,-1.,0.));
#784=DIRECTION('ref_axis',(0.707106781186548,0.,-0.707106781186548));
#785=DIRECTION('center_axis',(0.,1.,0.));
#786=DIRECTION('ref_axis',(1.,0.,0.));
#787=DIRECTION('',(0.,1.,0.));
#788=DIRECTION('center_axis',(-0.408248290463863,-0.816496580927726,0.408248290463863));
#789=DIRECTION('ref_axis',(0.577350269189626,-0.577350269189625,-0.577350269189626));
#790=DIRECTION('center_axis',(1.,0.,0.));
#791=DIRECTION('ref_axis',(0.,-0.707106781186546,-0.707106781186549));
#792=DIRECTION('center_axis',(0.,0.,1.));
#793=DIRECTION('ref_axis',(1.,0.,0.));
#794=DIRECTION('',(1.,0.,0.));
#795=DIRECTION('',(0.,-1.,0.));
#796=DIRECTION('center_axis',(1.,0.,0.));
#797=DIRECTION('ref_axis',(0.,-0.707106781186546,-0.707106781186549));
#798=DIRECTION('center_axis',(-1.,0.,0.));
#799=DIRECTION('ref_axis',(0.,-0.707106781186546,-0.707106781186549));
#800=DIRECTION('center_axis',(0.,-1.,0.));
#801=DIRECTION('ref_axis',(-0.707106781186548,0.,-0.707106781186548));
#802=DIRECTION('center_axis',(0.,1.,0.));
#803=DIRECTION('ref_axis',(0.,0.,-1.));
#804=DIRECTION('center_axis',(0.408248290463863,-0.816496580927726,0.408248290463863));
#805=DIRECTION('ref_axis',(-0.577350269189626,-0.577350269189625,-0.577350269189626));
#806=DIRECTION('center_axis',(0.,0.,-1.));
#807=DIRECTION('ref_axis',(-0.707106781186549,0.707106781186546,0.));
#808=DIRECTION('',(0.,0.,-1.));
#809=DIRECTION('center_axis',(0.,0.,-1.));
#810=DIRECTION('ref_axis',(-0.707106781186549,0.707106781186546,0.));
#811=DIRECTION('center_axis',(0.,0.,-1.));
#812=DIRECTION('ref_axis',(0.,1.,0.));
#813=DIRECTION('',(1.,0.,0.));
#814=DIRECTION('center_axis',(0.,-1.,0.));
#815=DIRECTION('ref_axis',(0.,0.,-1.));
#816=DIRECTION('center_axis',(0.,0.,1.));
#817=DIRECTION('ref_axis',(1.,0.,0.));
#818=DIRECTION('center_axis',(0.,0.,-1.));
#819=DIRECTION('ref_axis',(-1.,0.,0.));
#820=DIRECTION('center_axis',(0.,0.,-1.));
#821=DIRECTION('ref_axis',(-1.,0.,0.));
#822=DIRECTION('',(0.,0.,-1.));
#823=DIRECTION('center_axis',(0.,0.,-1.));
#824=DIRECTION('ref_axis',(-1.,0.,0.));
#825=DIRECTION('center_axis',(0.,0.,1.));
#826=DIRECTION('ref_axis',(-1.,0.,0.));
#827=CARTESIAN_POINT('',(0.,0.,0.));
#828=CARTESIAN_POINT('Origin',(-1.38777878078145E-14,-4.9960036108132E-15,
0.));
#829=CARTESIAN_POINT('',(-20.,-2.5467100125185E-15,0.));
#830=CARTESIAN_POINT('Origin',(-1.38777878078145E-14,-4.9960036108132E-15,
0.));
#831=CARTESIAN_POINT('',(-20.,-2.5467100125185E-15,3.));
#832=CARTESIAN_POINT('',(-20.,-7.44529720910791E-15,0.));
#833=CARTESIAN_POINT('Origin',(-1.38777878078145E-14,-4.9960036108132E-15,
3.));
#834=CARTESIAN_POINT('Origin',(-3.48078210724409,-58.2796728302362,77.));
#835=CARTESIAN_POINT('',(-3.96156421448818,-58.2796728302362,80.));
#836=CARTESIAN_POINT('',(-3.96156421448818,-61.2796728302362,77.));
#837=CARTESIAN_POINT('Origin',(-3.96156421448818,-58.2796728302362,77.));
#838=CARTESIAN_POINT('',(3.96156421448817,-61.2796728302362,77.));
#839=CARTESIAN_POINT('',(-3.48078210724409,-61.2796728302362,77.));
#840=CARTESIAN_POINT('',(3.96156421448817,-58.2796728302362,80.));
#841=CARTESIAN_POINT('Origin',(3.96156421448817,-58.2796728302362,77.));
#842=CARTESIAN_POINT('',(-3.48078210724409,-58.2796728302362,80.));
#843=CARTESIAN_POINT('Origin',(3.96156421448817,-30.6398364151181,77.));
#844=CARTESIAN_POINT('',(6.96156421448817,-58.2796728302361,77.));
#845=CARTESIAN_POINT('Origin',(3.96156421448817,-58.2796728302361,77.));
#846=CARTESIAN_POINT('',(6.96156421448817,-54.2796728302362,77.));
#847=CARTESIAN_POINT('',(6.96156421448817,-30.6398364151181,77.));
#848=CARTESIAN_POINT('',(3.96156421448817,-54.2796728302362,80.));
#849=CARTESIAN_POINT('Origin',(3.96156421448817,-54.2796728302362,77.));
#850=CARTESIAN_POINT('',(3.96156421448817,-30.6398364151181,80.));
#851=CARTESIAN_POINT('Origin',(3.96156421448817,-58.2796728302361,77.));
#852=CARTESIAN_POINT('Origin',(3.96156421448817,-58.2796728302361,77.));
#853=CARTESIAN_POINT('Origin',(-3.48078210724409,-54.2796728302362,77.));
#854=CARTESIAN_POINT('',(3.96156421448817,-51.2796728302362,77.));
#855=CARTESIAN_POINT('Origin',(3.96156421448817,-54.2796728302362,77.));
#856=CARTESIAN_POINT('',(-3.96156421448818,-51.2796728302362,77.));
#857=CARTESIAN_POINT('',(-3.48078210724409,-51.2796728302362,77.));
#858=CARTESIAN_POINT('',(-3.96156421448818,-54.2796728302362,80.));
#859=CARTESIAN_POINT('Origin',(-3.96156421448818,-54.2796728302362,77.));
#860=CARTESIAN_POINT('',(-3.48078210724409,-54.2796728302362,80.));
#861=CARTESIAN_POINT('Origin',(3.96156421448817,-54.2796728302362,77.));
#862=CARTESIAN_POINT('Origin',(3.96156421448817,-54.2796728302362,77.));
#863=CARTESIAN_POINT('Origin',(-3.96156421448818,-16.6398364151181,77.));
#864=CARTESIAN_POINT('',(-6.96156421448818,-54.2796728302362,77.));
#865=CARTESIAN_POINT('Origin',(-3.96156421448818,-54.2796728302362,77.));
#866=CARTESIAN_POINT('',(-6.96156421448818,-58.2796728302362,77.));
#867=CARTESIAN_POINT('',(-6.96156421448818,-16.6398364151181,77.));
#868=CARTESIAN_POINT('Origin',(-3.96156421448818,-58.2796728302362,77.));
#869=CARTESIAN_POINT('',(-3.96156421448818,-16.6398364151181,80.));
#870=CARTESIAN_POINT('Origin',(-3.96156421448818,-54.2796728302362,77.));
#871=CARTESIAN_POINT('Origin',(-3.96156421448818,-54.2796728302362,77.));
#872=CARTESIAN_POINT('Origin',(-3.96156421448818,-58.2796728302362,77.));
#873=CARTESIAN_POINT('Origin',(-3.96156421448818,-58.2796728302362,77.));
#874=CARTESIAN_POINT('Origin',(3.96156421448817,-58.2796728302361,0.));
#875=CARTESIAN_POINT('',(3.96156421448817,-61.2796728302362,3.));
#876=CARTESIAN_POINT('',(3.96156421448817,-61.2796728302362,0.));
#877=CARTESIAN_POINT('',(6.96156421448817,-58.2796728302362,3.));
#878=CARTESIAN_POINT('Origin',(3.96156421448817,-58.2796728302361,3.));
#879=CARTESIAN_POINT('',(6.96156421448817,-58.2796728302361,0.));
#880=CARTESIAN_POINT('Origin',(-6.96156421448818,-61.2796728302362,0.));
#881=CARTESIAN_POINT('',(-3.96156421448818,-61.2796728302362,3.));
#882=CARTESIAN_POINT('',(-3.96156421448818,-61.2796728302362,0.));
#883=CARTESIAN_POINT('',(-3.48078210724409,-61.2796728302362,3.));
#884=CARTESIAN_POINT('Origin',(-3.96156421448818,-58.2796728302362,0.));
#885=CARTESIAN_POINT('',(-6.96156421448818,-58.2796728302362,3.));
#886=CARTESIAN_POINT('',(-6.96156421448818,-58.2796728302362,0.));
#887=CARTESIAN_POINT('Origin',(-3.96156421448818,-58.2796728302362,3.));
#888=CARTESIAN_POINT('Origin',(-6.96156421448818,-33.2796728302361,0.));
#889=CARTESIAN_POINT('',(-6.96156421448818,-54.2796728302362,10.));
#890=CARTESIAN_POINT('',(-6.96156421448818,-54.2796728302362,25.));
#891=CARTESIAN_POINT('',(-6.96156421448818,-35.6337934887745,10.));
#892=CARTESIAN_POINT('',(-6.96156421448818,-42.2796728302362,10.));
#893=CARTESIAN_POINT('',(-6.96156421448818,-35.6337934887745,3.));
#894=CARTESIAN_POINT('',(-6.96156421448818,-35.6337934887745,0.));
#895=CARTESIAN_POINT('',(-6.96156421448818,-16.6398364151181,3.));
#896=CARTESIAN_POINT('Origin',(0.,0.,80.));
#897=CARTESIAN_POINT('Origin',(5.83341288239624,-31.2796728451373,0.));
#898=CARTESIAN_POINT('',(7.89748854844221,-33.4567331669559,50.));
#899=CARTESIAN_POINT('',(5.83341288239624,-34.2796728451373,50.));
#900=CARTESIAN_POINT('Origin',(5.83341288239624,-31.2796728451373,50.));
#901=CARTESIAN_POINT('',(5.83341288239624,-34.2796728451373,10.));
#902=CARTESIAN_POINT('',(5.83341288239624,-34.2796728451373,0.));
#903=CARTESIAN_POINT('',(7.8974885484422,-33.4567331669559,10.));
#904=CARTESIAN_POINT('Origin',(5.83341288239624,-31.2796728451373,10.));
#905=CARTESIAN_POINT('',(7.8974885484422,-33.4567331669559,0.));
#906=CARTESIAN_POINT('Origin',(9.96156421448817,-35.6337934887745,0.));
#907=CARTESIAN_POINT('',(6.96156421448817,-35.6337934887745,10.));
#908=CARTESIAN_POINT('Origin',(9.96156421448817,-35.6337934887745,10.));
#909=CARTESIAN_POINT('',(6.96156421448817,-35.6337934887745,3.));
#910=CARTESIAN_POINT('',(6.96156421448817,-35.6337934887745,0.));
#911=CARTESIAN_POINT('',(9.15386981871886,-32.7445669896847,3.));
#912=CARTESIAN_POINT('Origin',(9.96156421448817,-35.6337934887745,3.));
#913=CARTESIAN_POINT('',(9.15386981871886,-32.7445669896847,50.));
#914=CARTESIAN_POINT('',(9.15386981871886,-32.7445669896847,0.));
#915=CARTESIAN_POINT('Origin',(9.96156421448817,-35.6337934887745,50.));
#916=CARTESIAN_POINT('Origin',(-5.83341288239625,-31.2796728451373,0.));
#917=CARTESIAN_POINT('',(-5.83341288239625,-34.2796728451373,50.));
#918=CARTESIAN_POINT('',(-7.89748854844222,-33.4567331669559,50.));
#919=CARTESIAN_POINT('Origin',(-5.83341288239625,-31.2796728451373,50.));
#920=CARTESIAN_POINT('',(-7.89748854844222,-33.4567331669559,10.));
#921=CARTESIAN_POINT('',(-7.89748854844222,-33.4567331669559,0.));
#922=CARTESIAN_POINT('',(-5.83341288239625,-34.2796728451373,10.));
#923=CARTESIAN_POINT('Origin',(-5.83341288239625,-31.2796728451373,10.));
#924=CARTESIAN_POINT('',(-5.83341288239625,-34.2796728451373,0.));
#925=CARTESIAN_POINT('Origin',(-6.96156421448818,-34.2796728451373,10.));
#926=CARTESIAN_POINT('',(-3.48078210724409,-34.2796728451373,50.));
#927=CARTESIAN_POINT('',(-6.96156421448818,-34.2796728451373,10.));
#928=CARTESIAN_POINT('Ctrl Pts',(3.961564214465,-36.7873077157714,0.));
#929=CARTESIAN_POINT('Ctrl Pts',(4.63655440457997,-36.6419305654282,-5.21327915922031E-12));
#930=CARTESIAN_POINT('Ctrl Pts',(5.74711776315364,-36.2598959989294,0.392455320646681));
#931=CARTESIAN_POINT('Ctrl Pts',(6.75112749202167,-35.7538754571515,1.64447345140173));
#932=CARTESIAN_POINT('Ctrl Pts',(6.96156421448817,-35.6337934887745,2.54740498314591));
#933=CARTESIAN_POINT('Ctrl Pts',(6.96156421448817,-35.6337934887745,3.));
#934=CARTESIAN_POINT('Ctrl Pts',(3.86545903274437,-35.894869602526,7.42299276746298E-13));
#935=CARTESIAN_POINT('Ctrl Pts',(4.50709404934706,-35.766994352982,-0.02222876700281));
#936=CARTESIAN_POINT('Ctrl Pts',(5.61320514093546,-35.4398332287588,0.296213766092157));
#937=CARTESIAN_POINT('Ctrl Pts',(6.71976695778518,-34.9987826654805,1.54968235830101));
#938=CARTESIAN_POINT('Ctrl Pts',(6.96156421448817,-34.8919641259423,2.5166929953561));
#939=CARTESIAN_POINT('Ctrl Pts',(6.96156421448817,-34.8919641259423,3.));
#940=CARTESIAN_POINT('Ctrl Pts',(3.69902079919115,-34.3493148211957,-0.752653665750729));
#941=CARTESIAN_POINT('Ctrl Pts',(4.45828486065077,-34.2498574117661,-0.787126392486526));
#942=CARTESIAN_POINT('Ctrl Pts',(5.78792795417727,-34.0160124193704,-0.416297120587587));
#943=CARTESIAN_POINT('Ctrl Pts',(7.16454698755315,-33.6825935675988,1.16053899216471));
#944=CARTESIAN_POINT('Ctrl Pts',(7.46572325570757,-33.6000496651023,2.38544611171984));
#945=CARTESIAN_POINT('Ctrl Pts',(7.46572325570757,-33.6000496651023,3.));
#946=CARTESIAN_POINT('Ctrl Pts',(3.6403563051679,-33.8045530361137,-2.3268015742304));
#947=CARTESIAN_POINT('Ctrl Pts',(4.73159010323433,-33.6872208815614,-2.33697599625043));
#948=CARTESIAN_POINT('Ctrl Pts',(6.55295531998776,-33.3907631253921,-1.67634187751733));
#949=CARTESIAN_POINT('Ctrl Pts',(8.25688784212847,-32.9910368728631,0.550469273295266));
#950=CARTESIAN_POINT('Ctrl Pts',(8.6180415554944,-32.8943598444289,2.18181546402917));
#951=CARTESIAN_POINT('Ctrl Pts',(8.6180415554944,-32.8943598444289,3.));
#952=CARTESIAN_POINT('Ctrl Pts',(3.64035630516276,-33.8045530361143,-3.));
#953=CARTESIAN_POINT('Ctrl Pts',(4.88087881672543,-33.6709632222854,-3.00000000001043));
#954=CARTESIAN_POINT('Ctrl Pts',(6.92191417842835,-33.3199044314487,-2.21508935870669));
#955=CARTESIAN_POINT('Ctrl Pts',(8.76712124769936,-32.8549125822473,0.288946902803463));
#956=CARTESIAN_POINT('Ctrl Pts',(9.15386981871886,-32.7445669896847,2.0948099662917));
#957=CARTESIAN_POINT('Ctrl Pts',(9.15386981871886,-32.7445669896847,3.));
#958=CARTESIAN_POINT('',(3.96156421446598,-36.787307715776,-1.84314369322536E-16));
#959=CARTESIAN_POINT('',(8.41519907201869,-32.9421375229097,1.73526124025436E-12));
#960=CARTESIAN_POINT('Ctrl Pts',(3.96156421448817,-36.7873077157664,0.));
#961=CARTESIAN_POINT('Ctrl Pts',(3.96405258532887,-36.7842547161847,-2.03190676455959E-18));
#962=CARTESIAN_POINT('Ctrl Pts',(3.9665403385387,-36.7812012236514,5.55112693963199E-16));
#963=CARTESIAN_POINT('Ctrl Pts',(4.47392308475529,-36.1581830973433,5.54871635682763E-16));
#964=CARTESIAN_POINT('Ctrl Pts',(4.93438802728749,-35.5419387873028,-5.8840501502887E-16));
#965=CARTESIAN_POINT('Ctrl Pts',(5.88349901640503,-34.4771219656011,-5.26970565718486E-16));
#966=CARTESIAN_POINT('Ctrl Pts',(6.34974852709909,-34.0262532709641,0.));
#967=CARTESIAN_POINT('Ctrl Pts',(7.48280328619504,-33.2453352158313,0.));
#968=CARTESIAN_POINT('Ctrl Pts',(8.00485225439354,-33.0469622373498,9.44636404117181E-17));
#969=CARTESIAN_POINT('Ctrl Pts',(8.41519907201685,-32.9421375229102,9.30820565522066E-17));
#970=CARTESIAN_POINT('Ctrl Pts',(8.41403596406354,-32.9418761720814,0.00058177228030605));
#971=CARTESIAN_POINT('Ctrl Pts',(8.48025185697437,-32.9249334271104,0.12535293467259));
#972=CARTESIAN_POINT('Ctrl Pts',(8.92945814017455,-32.8085952537883,1.04695409385688));
#973=CARTESIAN_POINT('Ctrl Pts',(9.15386981871886,-32.7445669896847,2.0948099662917));
#974=CARTESIAN_POINT('Ctrl Pts',(9.15386981871886,-32.7445669896847,3.));
#975=CARTESIAN_POINT('Ctrl Pts',(6.96156421448817,-35.6337934887745,3.));
#976=CARTESIAN_POINT('Ctrl Pts',(6.96156421448817,-35.6337934887745,2.80770955820171));
#977=CARTESIAN_POINT('Ctrl Pts',(6.94256810706553,-35.6445059100866,2.61556944568587));
#978=CARTESIAN_POINT('Ctrl Pts',(6.90566893205729,-35.6647296885098,2.42714013358661));
#979=CARTESIAN_POINT('Ctrl Pts',(6.86876975704905,-35.684953466933,2.23871082148736));
#980=CARTESIAN_POINT('Ctrl Pts',(6.81396617887241,-35.7146871322329,2.05399473118064));
#981=CARTESIAN_POINT('Ctrl Pts',(6.74240606388939,-35.7527169253711,1.87657339182031));
#982=CARTESIAN_POINT('Ctrl Pts',(6.71711632829268,-35.7661568620382,1.81387172116619));
#983=CARTESIAN_POINT('Ctrl Pts',(6.68973090698835,-35.7805984059333,1.75207229866235));
#984=CARTESIAN_POINT('Ctrl Pts',(6.66029870598669,-35.795983918701,1.69133002711276));
#985=CARTESIAN_POINT('Ctrl Pts',(6.54661341425348,-35.8554122471283,1.4567059546126));
#986=CARTESIAN_POINT('Ctrl Pts',(6.40238710356674,-35.928922776587,1.23785387228748));
#987=CARTESIAN_POINT('Ctrl Pts',(6.23309180525623,-36.009066430408,1.04130967607988));
#988=CARTESIAN_POINT('Ctrl Pts',(6.1920003813668,-36.0285189307672,0.993604388573544));
#989=CARTESIAN_POINT('Ctrl Pts',(6.14943227727138,-36.0483623283279,0.947213307311258));
#990=CARTESIAN_POINT('Ctrl Pts',(6.10546612596571,-36.0684903891931,0.902229715760664));
#991=CARTESIAN_POINT('Ctrl Pts',(6.01818394443741,-36.1084488802157,0.812927698483403));
#992=CARTESIAN_POINT('Ctrl Pts',(5.92535371523442,-36.1495258424512,0.729135064627851));
#993=CARTESIAN_POINT('Ctrl Pts',(5.82759637635328,-36.1908625833995,0.651605914239039));
#994=CARTESIAN_POINT('Ctrl Pts',(5.68941382632357,-36.249293145642,0.542016436610271));
#995=CARTESIAN_POINT('Ctrl Pts',(5.54138583956166,-36.3082421972528,0.444943984566996));
#996=CARTESIAN_POINT('Ctrl Pts',(5.38600636416314,-36.3660161308396,0.361425493399705));
#997=CARTESIAN_POINT('Ctrl Pts',(5.31579249335127,-36.392123385345,0.323684623608623));
#998=CARTESIAN_POINT('Ctrl Pts',(5.24407782717484,-36.4179906988374,0.288710894060418));
#999=CARTESIAN_POINT('Ctrl Pts',(5.17109389188607,-36.4434622584006,0.256596814261633));
#1000=CARTESIAN_POINT('Ctrl Pts',(5.016543856362,-36.4974005726305,0.188592367062566));
#1001=CARTESIAN_POINT('Ctrl Pts',(4.8562362716251,-36.5495959065961,0.133376785673809));
#1002=CARTESIAN_POINT('Ctrl Pts',(4.69222151515899,-36.5986087053792,0.0918189276919296));
#1003=CARTESIAN_POINT('Ctrl Pts',(4.6149261222358,-36.6217070144694,0.0722339157639374));
#1004=CARTESIAN_POINT('Ctrl Pts',(4.53680564711508,-36.6440987489685,0.0556826781292633));
#1005=CARTESIAN_POINT('Ctrl Pts',(4.45807962334272,-36.6656305171128,0.0422609513587118));
#1006=CARTESIAN_POINT('Ctrl Pts',(4.36140606447419,-36.6920709818472,0.0257794115717884));
#1007=CARTESIAN_POINT('Ctrl Pts',(4.26382493631786,-36.7172127484958,0.0140191186909636));
#1008=CARTESIAN_POINT('Ctrl Pts',(4.1657828773419,-36.7407629541407,0.00715660331223358));
#1009=CARTESIAN_POINT('Ctrl Pts',(4.09787450655519,-36.7570748932588,0.00240331432854773));
#1010=CARTESIAN_POINT('Ctrl Pts',(4.02974598255324,-36.7726229525035,-5.26603812997844E-13));
#1011=CARTESIAN_POINT('Ctrl Pts',(3.961564214465,-36.7873077157714,8.89828895112299E-28));
#1012=CARTESIAN_POINT('Origin',(6.96156421448817,-61.2796728302362,0.));
#1013=CARTESIAN_POINT('',(6.96156421448817,-30.6398364151181,3.));
#1014=CARTESIAN_POINT('',(6.96156421448817,-54.2796728302362,10.));
#1015=CARTESIAN_POINT('',(6.96156421448817,-56.2796728302362,10.));
#1016=CARTESIAN_POINT('',(6.96156421448817,-54.2796728302362,25.));
#1017=CARTESIAN_POINT('Origin',(-9.96156421448818,-35.6337934887745,0.));
#1018=CARTESIAN_POINT('',(-9.15386981871887,-32.7445669896847,50.));
#1019=CARTESIAN_POINT('Origin',(-9.96156421448818,-35.6337934887745,50.));
#1020=CARTESIAN_POINT('',(-9.15386981871887,-32.7445669896847,3.));
#1021=CARTESIAN_POINT('',(-9.15386981871887,-32.7445669896847,0.));
#1022=CARTESIAN_POINT('Origin',(-9.96156421448818,-35.6337934887745,3.));
#1023=CARTESIAN_POINT('Origin',(-9.96156421448818,-35.6337934887745,10.));
#1024=CARTESIAN_POINT('Ctrl Pts',(-6.96156421448818,-35.6337934887745,3.));
#1025=CARTESIAN_POINT('Ctrl Pts',(-6.96156421448818,-35.6337934887745,2.32110747434597));
#1026=CARTESIAN_POINT('Ctrl Pts',(-6.56041408135627,-35.8715734020476,1.19922042451957));
#1027=CARTESIAN_POINT('Ctrl Pts',(-5.30499135743955,-36.4286157045941,0.206823494638933));
#1028=CARTESIAN_POINT('Ctrl Pts',(-4.41155767468398,-36.6903896155119,-3.47600150949083E-12));
#1029=CARTESIAN_POINT('Ctrl Pts',(-3.961564214465,-36.7873077157714,0.));
#1030=CARTESIAN_POINT('Ctrl Pts',(-6.96156421448818,-34.8919641259423,3.));
#1031=CARTESIAN_POINT('Ctrl Pts',(-6.96156421448818,-34.8919641259423,2.27503949263594));
#1032=CARTESIAN_POINT('Ctrl Pts',(-6.49426599187368,-35.1030547453262,1.08059715158214));
#1033=CARTESIAN_POINT('Ctrl Pts',(-5.16308018821233,-35.5843054852404,0.144097742063314));
#1034=CARTESIAN_POINT('Ctrl Pts',(-4.29321571061479,-35.8096194361364,-0.0148191780063133));
#1035=CARTESIAN_POINT('Ctrl Pts',(-3.86545903274437,-35.894869602526,7.4240597493183E-13));
#1036=CARTESIAN_POINT('Ctrl Pts',(-7.46572325570757,-33.6000496651023,3.));
#1037=CARTESIAN_POINT('Ctrl Pts',(-7.46572325570757,-33.6000496651023,2.07816916707341));
#1038=CARTESIAN_POINT('Ctrl Pts',(-6.8793499678136,-33.7637826071823,0.566523673422083));
#1039=CARTESIAN_POINT('Ctrl Pts',(-5.24120918845564,-34.1198899555092,-0.596476431690228));
#1040=CARTESIAN_POINT('Ctrl Pts',(-4.20519684032432,-34.283009881555,-0.775635483581863));
#1041=CARTESIAN_POINT('Ctrl Pts',(-3.69902079919116,-34.3493148211957,-0.752653665750728));
#1042=CARTESIAN_POINT('Ctrl Pts',(-8.61804155549441,-32.8943598444289,3.));
#1043=CARTESIAN_POINT('Ctrl Pts',(-8.61804155549441,-32.8943598444289,1.77272319536963));
#1044=CARTESIAN_POINT('Ctrl Pts',(-7.92549160395615,-33.0855058371153,-0.251078689667962));
#1045=CARTESIAN_POINT('Ctrl Pts',(-5.82211982768756,-33.5216148000853,-1.99041633275855));
#1046=CARTESIAN_POINT('Ctrl Pts',(-4.36784550410894,-33.7263315997208,-2.3335845222459));
#1047=CARTESIAN_POINT('Ctrl Pts',(-3.6403563051679,-33.8045530361137,-2.32680157423041));
#1048=CARTESIAN_POINT('Ctrl Pts',(-9.15386981871887,-32.7445669896847,3.));
#1049=CARTESIAN_POINT('Ctrl Pts',(-9.15386981871887,-32.7445669896847,1.64221494869173));
#1050=CARTESIAN_POINT('Ctrl Pts',(-8.41662092539535,-32.9630674505302,-0.601559150960822));
#1051=CARTESIAN_POINT('Ctrl Pts',(-6.10935754089977,-33.4749441609784,-2.5863530107222));
#1052=CARTESIAN_POINT('Ctrl Pts',(-4.46737131313277,-33.7154931602002,-3.00000000000695));
#1053=CARTESIAN_POINT('Ctrl Pts',(-3.64035630516276,-33.8045530361143,-3.));
#1054=CARTESIAN_POINT('',(-8.41519907201869,-32.9421375229097,1.73531328195864E-12));
#1055=CARTESIAN_POINT('',(-3.96156421446599,-36.787307715776,-2.03287907341032E-16));
#1056=CARTESIAN_POINT('Ctrl Pts',(-8.41519907201685,-32.9421375229102,6.54950276108574E-16));
#1057=CARTESIAN_POINT('Ctrl Pts',(-8.00485225439833,-33.0469622373485,6.5287089566275E-16));
#1058=CARTESIAN_POINT('Ctrl Pts',(-7.48280328621861,-33.2453352158242,-2.91433543964104E-15));
#1059=CARTESIAN_POINT('Ctrl Pts',(-6.34974852706456,-34.0262532709798,-2.91433543964104E-15));
#1060=CARTESIAN_POINT('Ctrl Pts',(-5.88349901630848,-34.4771219656923,8.32667268468867E-16));
#1061=CARTESIAN_POINT('Ctrl Pts',(-4.93438802614271,-35.5419387886074,8.32667268468867E-16));
#1062=CARTESIAN_POINT('Ctrl Pts',(-4.47392305788347,-36.1581831303669,0.));
#1063=CARTESIAN_POINT('Ctrl Pts',(-3.96654033894327,-36.7812012231541,0.));
#1064=CARTESIAN_POINT('Ctrl Pts',(-3.96405258491881,-36.7842547166878,-1.39682393610982E-18));
#1065=CARTESIAN_POINT('Ctrl Pts',(-3.96156421448817,-36.7873077157664,0.));
#1066=CARTESIAN_POINT('Ctrl Pts',(-3.961564214465,-36.7873077157714,-5.55111512312578E-17));
#1067=CARTESIAN_POINT('Ctrl Pts',(-4.02720330838829,-36.7731705852391,-5.07082617484455E-13));
#1068=CARTESIAN_POINT('Ctrl Pts',(-4.09280094582637,-36.7583044617686,0.00220072740160364));
#1069=CARTESIAN_POINT('Ctrl Pts',(-4.15821186175488,-36.7427739493304,0.00656388617371545));
#1070=CARTESIAN_POINT('Ctrl Pts',(-4.28071000434875,-36.7136892178264,0.0147349817445216));
#1071=CARTESIAN_POINT('Ctrl Pts',(-4.40254973419387,-36.682274919217,0.0304906598463803));
#1072=CARTESIAN_POINT('Ctrl Pts',(-4.52284485116897,-36.6489260974555,0.0535526417393196));
#1073=CARTESIAN_POINT('Ctrl Pts',(-4.69716199571497,-36.6006010155269,0.0869712786070215));
#1074=CARTESIAN_POINT('Ctrl Pts',(-4.86821318975602,-36.5479831427027,0.135721786694097));
#1075=CARTESIAN_POINT('Ctrl Pts',(-5.03349609311656,-36.4926794880337,0.198948234557821));
#1076=CARTESIAN_POINT('Ctrl Pts',(-5.08006673082337,-36.4770969540082,0.21676312004859));
#1077=CARTESIAN_POINT('Ctrl Pts',(-5.12617963948832,-36.4613009922008,0.235727404083471));
#1078=CARTESIAN_POINT('Ctrl Pts',(-5.17177919963711,-36.4453270206113,0.255822291910141));
#1079=CARTESIAN_POINT('Ctrl Pts',(-5.20169905416373,-36.4348458031476,0.269007421734658));
#1080=CARTESIAN_POINT('Ctrl Pts',(-5.2313975384148,-36.4242930429948,0.282679138752153));
#1081=CARTESIAN_POINT('Ctrl Pts',(-5.26085916788597,-36.4136745896257,0.296832242615506));
#1082=CARTESIAN_POINT('Ctrl Pts',(-5.41979390369612,-36.3563919100448,0.373183071262527));
#1083=CARTESIAN_POINT('Ctrl Pts',(-5.57183794941048,-36.2971961864572,0.463540637746969));
#1084=CARTESIAN_POINT('Ctrl Pts',(-5.71487519451249,-36.2382365357993,0.566454865377377));
#1085=CARTESIAN_POINT('Ctrl Pts',(-5.85436016672891,-36.1807411245305,0.666813259245093));
#1086=CARTESIAN_POINT('Ctrl Pts',(-5.98527967816764,-36.1234687283066,0.779111960260158));
#1087=CARTESIAN_POINT('Ctrl Pts',(-6.10565237865295,-36.0684418781772,0.902037578411645));
#1088=CARTESIAN_POINT('Ctrl Pts',(-6.17463255342976,-36.0369084679934,0.972480715355903));
#1089=CARTESIAN_POINT('Ctrl Pts',(-6.24011589888682,-36.0060396503054,1.04638074803642));
#1090=CARTESIAN_POINT('Ctrl Pts',(-6.3017343209553,-35.9763417532764,1.12348415852417));
#1091=CARTESIAN_POINT('Ctrl Pts',(-6.40214103093627,-35.9279492752815,1.2491235292757));
#1092=CARTESIAN_POINT('Ctrl Pts',(-6.49228717404072,-35.8826676708935,1.38327045452595));
#1093=CARTESIAN_POINT('Ctrl Pts',(-6.57134042713585,-35.8419787447106,1.52397562133447));
#1094=CARTESIAN_POINT('Ctrl Pts',(-6.63527824536681,-35.8090697743085,1.63777715419151));
#1095=CARTESIAN_POINT('Ctrl Pts',(-6.69195873670829,-35.7791641119875,1.75586920105447));
#1096=CARTESIAN_POINT('Ctrl Pts',(-6.74092975661188,-35.7530304691579,1.87720372316019));
#1097=CARTESIAN_POINT('Ctrl Pts',(-6.78787139210085,-35.7279798180153,1.99351007986115));
#1098=CARTESIAN_POINT('Ctrl Pts',(-6.82778826850735,-35.706530082473,2.11295186170996));
#1099=CARTESIAN_POINT('Ctrl Pts',(-6.86021076149477,-35.6890161282353,2.23452331634825));
#1100=CARTESIAN_POINT('Ctrl Pts',(-6.89342349089941,-35.6710753047729,2.35905784328291));
#1101=CARTESIAN_POINT('Ctrl Pts',(-6.91877242020381,-35.6572654501859,2.4858254384423));
#1102=CARTESIAN_POINT('Ctrl Pts',(-6.93580727287049,-35.6479447125905,2.61375660076045));
#1103=CARTESIAN_POINT('Ctrl Pts',(-6.95284212553718,-35.6386239749952,2.74168776307859));
#1104=CARTESIAN_POINT('Ctrl Pts',(-6.96156421448818,-35.6337934887745,2.87078150201057));
#1105=CARTESIAN_POINT('Ctrl Pts',(-6.96156421448818,-35.6337934887745,3.));
#1106=CARTESIAN_POINT('Ctrl Pts',(-9.15386981871887,-32.7445669896847,3.));
#1107=CARTESIAN_POINT('Ctrl Pts',(-9.15386981871887,-32.7445669896847,1.94951694032293));
#1108=CARTESIAN_POINT('Ctrl Pts',(-8.88909209738105,-32.8230398835172,0.905929778801577));
#1109=CARTESIAN_POINT('Ctrl Pts',(-8.41254421847501,-32.9438014089784,0.00162123830417177));
#1110=CARTESIAN_POINT('Origin',(0.,0.,0.));
#1111=CARTESIAN_POINT('Origin',(0.,0.,0.));
#1112=CARTESIAN_POINT('Origin',(0.,0.,50.));
#1113=CARTESIAN_POINT('Origin',(3.96156421448817,-54.2796728302362,25.));
#1114=CARTESIAN_POINT('',(3.96156421448817,-51.2796728302362,10.));
#1115=CARTESIAN_POINT('Origin',(3.96156421448817,-54.2796728302362,10.));
#1116=CARTESIAN_POINT('',(3.96156421448817,-51.2796728302362,25.));
#1117=CARTESIAN_POINT('Origin',(3.96156421448817,-30.6398364151181,3.));
#1118=CARTESIAN_POINT('',(3.96156421448817,-58.2796728302362,0.));
#1119=CARTESIAN_POINT('Origin',(3.96156421448817,-58.2796728302362,3.));
#1120=CARTESIAN_POINT('',(3.96156421448817,-30.6398364151181,0.));
#1121=CARTESIAN_POINT('Origin',(3.96156421448817,-58.2796728302362,3.));
#1122=CARTESIAN_POINT('Origin',(3.96156421448817,-58.2796728302362,3.));
#1123=CARTESIAN_POINT('Origin',(0.,0.,0.));
#1124=CARTESIAN_POINT('',(-3.96156421448818,-58.2796728302362,0.));
#1125=CARTESIAN_POINT('',(-3.48078210724409,-58.2796728302362,0.));
#1126=CARTESIAN_POINT('',(-3.96156421448818,-16.6398364151181,0.));
#1127=CARTESIAN_POINT('Origin',(-3.48078210724409,-58.2796728302362,3.));
#1128=CARTESIAN_POINT('Origin',(-3.96156421448818,-58.2796728302362,3.));
#1129=CARTESIAN_POINT('Origin',(-3.96156421448818,-16.6398364151181,3.));
#1130=CARTESIAN_POINT('Origin',(-3.96156421448818,-58.2796728302362,3.));
#1131=CARTESIAN_POINT('Origin',(-3.96156421448818,-58.2796728302362,3.));
#1132=CARTESIAN_POINT('Origin',(-3.96156421448818,-54.2796728302362,25.));
#1133=CARTESIAN_POINT('',(-3.96156421448818,-51.2796728302362,10.));
#1134=CARTESIAN_POINT('',(-3.96156421448818,-51.2796728302362,25.));
#1135=CARTESIAN_POINT('Origin',(-3.96156421448818,-54.2796728302362,10.));
#1136=CARTESIAN_POINT('Origin',(-6.96156421448818,-51.2796728302362,10.));
#1137=CARTESIAN_POINT('',(-6.96156421448818,-51.2796728302362,10.));
#1138=CARTESIAN_POINT('Origin',(-6.96156421448818,-51.2796728302362,50.));
#1139=CARTESIAN_POINT('Origin',(0.,0.,50.));
#1140=CARTESIAN_POINT('',(33.,4.04133443718627E-15,50.));
#1141=CARTESIAN_POINT('Origin',(0.,0.,50.));
#1142=CARTESIAN_POINT('Origin',(0.,0.,50.));
#1143=CARTESIAN_POINT('',(33.,4.04133443718627E-15,3.));
#1144=CARTESIAN_POINT('',(33.,-4.04133443718627E-15,50.));
#1145=CARTESIAN_POINT('Origin',(0.,0.,3.));
#1146=CARTESIAN_POINT('Origin',(0.,0.,3.));
#1147=UNCERTAINTY_MEASURE_WITH_UNIT(LENGTH_MEASURE(0.01),#1151,
'DISTANCE_ACCURACY_VALUE',
'Maximum model space distance between geometric entities at asserted c
onnectivities');
#1148=UNCERTAINTY_MEASURE_WITH_UNIT(LENGTH_MEASURE(0.01),#1151,
'DISTANCE_ACCURACY_VALUE',
'Maximum model space distance between geometric entities at asserted c
onnectivities');
#1149=(
GEOMETRIC_REPRESENTATION_CONTEXT(3)
GLOBAL_UNCERTAINTY_ASSIGNED_CONTEXT((#1147))
GLOBAL_UNIT_ASSIGNED_CONTEXT((#1151,#1153,#1154))
REPRESENTATION_CONTEXT('','3D')
);
#1150=(
GEOMETRIC_REPRESENTATION_CONTEXT(3)
GLOBAL_UNCERTAINTY_ASSIGNED_CONTEXT((#1148))
GLOBAL_UNIT_ASSIGNED_CONTEXT((#1151,#1153,#1154))
REPRESENTATION_CONTEXT('','3D')
);
#1151=(
LENGTH_UNIT()
NAMED_UNIT(*)
SI_UNIT(.MILLI.,.METRE.)
);
#1152=(
LENGTH_UNIT()
NAMED_UNIT(*)
SI_UNIT($,.METRE.)
);
#1153=(
NAMED_UNIT(*)
PLANE_ANGLE_UNIT()
SI_UNIT($,.RADIAN.)
);
#1154=(
NAMED_UNIT(*)
SI_UNIT($,.STERADIAN.)
SOLID_ANGLE_UNIT()
);
#1155=SHAPE_DEFINITION_REPRESENTATION(#1156,#1157);
#1156=PRODUCT_DEFINITION_SHAPE('',$,#1159);
#1157=SHAPE_REPRESENTATION('',(#577),#1149);
#1158=PRODUCT_DEFINITION_CONTEXT('part definition',#1163,'design');
#1159=PRODUCT_DEFINITION('(\X2\672A4FDD5B58\X0\)','(\X2\672A4FDD5B58\X0\)',
#1160,#1158);
#1160=PRODUCT_DEFINITION_FORMATION('',$,#1165);
#1161=PRODUCT_RELATED_PRODUCT_CATEGORY('(\X2\672A4FDD5B58\X0\)',
'(\X2\672A4FDD5B58\X0\)',(#1165));
#1162=APPLICATION_PROTOCOL_DEFINITION('international standard',
'automotive_design',2009,#1163);
#1163=APPLICATION_CONTEXT(
'Core Data for Automotive Mechanical Design Process');
#1164=PRODUCT_CONTEXT('part definition',#1163,'mechanical');
#1165=PRODUCT('(\X2\672A4FDD5B58\X0\)','(\X2\672A4FDD5B58\X0\)',$,(#1164));
#1166=PRESENTATION_STYLE_ASSIGNMENT((#1168));
#1167=PRESENTATION_STYLE_ASSIGNMENT((#1169));
#1168=SURFACE_STYLE_USAGE(.BOTH.,#1170);
#1169=SURFACE_STYLE_USAGE(.BOTH.,#1171);
#1170=SURFACE_SIDE_STYLE('',(#1172));
#1171=SURFACE_SIDE_STYLE('',(#1173));
#1172=SURFACE_STYLE_FILL_AREA(#1174);
#1173=SURFACE_STYLE_FILL_AREA(#1175);
#1174=FILL_AREA_STYLE('\X2\94A2\X0\ - \X2\7F0E5149\X0\',(#1176));
#1175=FILL_AREA_STYLE('Opaque(160,160,160)',(#1177));
#1176=FILL_AREA_STYLE_COLOUR('\X2\94A2\X0\ - \X2\7F0E5149\X0\',#1178);
#1177=FILL_AREA_STYLE_COLOUR('Opaque(160,160,160)',#1179);
#1178=COLOUR_RGB('\X2\94A2\X0\ - \X2\7F0E5149\X0\',0.627450980392157,0.627450980392157,
0.627450980392157);
#1179=COLOUR_RGB('Opaque(160,160,160)',0.627450980392157,0.627450980392157,
0.627450980392157);
ENDSEC;
END-ISO-10303-21;
